<svg xmlns="http://www.w3.org/2000/svg" xmlns:svg="http://www.w3.org/2000/svg" id="svg8" width="280" height="73" version="1.1" viewBox="0 0 74.083 19.315"><defs id="defs2"><clipPath id="clipPath1002" clipPathUnits="userSpaceOnUse"><circle id="circle1004" cx="37.042" cy="0" r="16.669" d="M 53.710419,7.6293946e-7 A 16.668751,16.668751 0 0 1 37.041668,16.668752 16.668751,16.668751 0 0 1 20.372917,7.6293947e-7 16.668751,16.668751 0 0 1 37.041668,-16.66875 16.668751,16.668751 0 0 1 53.710419,7.6293946e-7" style="display:none;fill:green;stroke-width:.467863"/><path d="M -5,-5 H 79.083336 V 24.314583 H -5 Z M 53.710419,7.6293946e-7 A 16.668751,16.668751 0 0 0 37.041668,-16.66875 16.668751,16.668751 0 0 0 20.372917,7.6293947e-7 16.668751,16.668751 0 0 0 37.041668,16.668752 16.668751,16.668751 0 0 0 53.710419,7.6293946e-7" class="powerclip" style="fill-rule:evenodd" id="lpe_path-effect1006"/></clipPath></defs><metadata id="metadata5"/><g id="layer1"><path id="rect833" width="74.083" height="19.315" x="0" y="0" d="M 0,0 H 74.083336 V 19.314583 H 0 Z" clip-path="url(#clipPath1002)" style="fill:#fff;stroke-width:.286256;fill-opacity:1"/></g></svg>